<svg xmlns="http://www.w3.org/2000/svg" width="512" height="512" viewBox="0 0 384 384" preserveAspectRatio="xMidYMid">
  <g transform="matrix(0.1,0,0,-0.1,0,1024)">
    <g transform="matrix(0.38116657,0,0,0.38116657,-992.31481,6441.5845)">
      <path fill="#D40000" d="m 9634,7869 c -199,-14 -451,-80 -624,-162 -164,-78 -379,-237 -466,-343 -20,-24 -38,-43 -40,-41 -8,8 51,178 87,250 21,42 36,77 33,77 -2,0 -36,-16 -74,-35 -130,-66 -242,-172 -297,-283 -31,-61 -37,-86 -41,-155 -5,-98 -2,-94 -184,-243 -69,-57 -134,-114 -142,-126 -18,-25 -22,-98 -5,-98 6,0 20,5 31,11 45,24 5,-12 -60,-54 -99,-64 -339,-246 -400,-303 l -53,-49 45,-63 c 36,-51 47,-78 57,-135 14,-84 40,-141 81,-179 l 29,-27 -21,-40 c -11,-22 -20,-46 -20,-54 0,-8 -19,-19 -42,-26 -57,-17 -198,-82 -198,-92 0,-5 -30,-27 -67,-49 -245,-148 -421,-351 -509,-585 -88,-237 -87,-528 3,-754 108,-270 353,-505 642,-616 144,-54 234,-70 416,-70 142,1 173,4 270,28 322,82 607,307 750,592 71,142 97,244 102,411 4,88 1,168 -6,210 -37,212 -147,418 -309,579 -76,75 -236,191 -309,222 l -38,17 45,7 c 25,4 82,21 127,38 45,16 104,33 131,37 44,6 51,4 66,-17 18,-26 22,-103 6,-143 -8,-23 -3,-32 49,-87 68,-71 70,-71 148,15 92,100 163,225 205,356 20,65 23,96 23,225 0,148 0,152 -31,214 l -31,62 40,-38 c 76,-71 100,-98 129,-143 33,-52 66,-156 77,-243 l 8,-62 17,38 c 50,112 64,310 31,442 -28,112 -88,221 -160,290 -34,33 -78,69 -98,80 -21,11 -37,23 -37,27 0,4 20,7 45,6 58,-1 133,36 162,81 31,46 43,94 43,169 v 62 h -97 c -160,0 -334,-25 -371,-53 -7,-5 -15,-7 -18,-4 -8,7 93,72 186,118 120,61 290,86 365,55 41,-17 60,-53 69,-126 8,-66 -6,-147 -36,-208 -24,-46 -86,-117 -126,-142 -22,-15 -21,-16 55,-60 45,-26 108,-75 148,-115 124,-123 184,-250 192,-405 l 4,-85 -28,54 c -15,30 -56,84 -90,120 l -62,66 -1,-102 c 0,-56 -5,-126 -11,-155 -27,-128 -127,-290 -247,-398 -43.6304,-38.9136 -67,-68 -67,-79 0,-39 -165,-189 -243,-220 -18,-8 -31,-17 -30,-20 23,-50 105,-191 111,-191 4,0 7,26 7,58 v 57 l 46,25 c 26,13 69,44 98,69 34,31 45,38 35,21 -28,-43 -66,-161 -84,-260 -13,-72 -18,-157 -20,-345 -2,-234 -4,-256 -28,-347 -14,-53 -44,-136 -66,-184 -23,-48 -40,-89 -38,-91 8,-8 168,197 229,295 128,203 253,472 327,704 38,121 80,341 88,468 5,73 11,101 27,123 11,15 23,27 28,27 14,0 9,-361 -7,-453 -33,-188 -106,-433 -183,-612 -143,-332 -395,-662 -650,-853 -46,-34 -81,-62 -78,-62 16,0 172,67 236,102 216,118 467,360 580,561 18,32 33,57 35,55 1,-2 -9,-68 -21,-148 -64,-390 -92,-585 -88,-592 4,-6 145,-6 475,1 l 47,1 17,113 c 9,61 34,218 55,347 21,129 53,342 71,473 18,130 35,237 38,237 3,-1 36,-44 73,-98 334,-481 712,-1022 730,-1043 23,-26 25,-26 215,-33 170,-7 283,-2 283,11 0,7 188,1173 241,1494 28,174 49,323 46,332 -4,12 -50,16 -265,22 -143,4 -265,5 -270,1 -5,-3 -12,-36 -16,-73 -4,-36 -25,-179 -46,-317 -22,-138 -50,-315 -62,-393 -13,-79 -25,-143 -28,-143 -6,1 -76,96 -316,430 -256,357 -344,489 -337,506 5,15 -81,150 -153,239 -54,66 -159,245 -188,320 -54,137 -89,210 -113,243 -14,18 -23,35 -21,38 3,2 36,-18 74,-45 85,-59 171,-151 220,-234 38,-64 104,-219 104,-243 0,-8 4,-14 9,-14 11,0 17,26 30,123 28,199 -84,445 -263,581 -112,84 -291,157 -427,172 -33,4 -57,9 -55,12 10,9 220,40 321,47 246,17 587,-56 821,-175 191,-98 286,-168 499,-365 190,-177 272,-227 432,-267 102,-26 286,-28 388,-5 l 60,13 -67,17 c -190,48 -316,139 -521,377 -244,284 -407,421 -622,525 -201,98 -346,133 -580,142 -167,6 -346,-12 -456,-47 -35,-10 -65,-18 -67,-16 -1,2 27,20 63,40 181,99 278,121 550,120 168,0 217,-4 305,-23 124,-26 333,-95 444,-146 43,-19 81,-33 84,-30 3,3 -39,49 -94,103 -206,202 -473,342 -770,404 -142,29 -437,32 -581,5 -199,-38 -414,-111 -596,-203 -60,-31 -111,-54 -113,-52 -4,5 179,156 236,195 78,52 252,140 350,176 183,68 373,109 620,135 l 75,8 -55,12 c -105,24 -226,42 -354,52 -142,11 -188,11 -352,-1 z M 8460,6792 c -37,-25 -73,-64 -91,-98 -20,-37 -70,-62 -152,-75 -34,-5 -76,-11 -94,-14 l -31,-6 22,48 c 13,26 26,58 30,70 4,12 23,32 43,44 34,21 68,27 288,47 6,1 -1,-7 -15,-16 z m -712,-533 c -9,-5 -41,-29 -72,-54 -63,-52 -82,-98 -71,-172 3,-24 4,-43 1,-43 -8,0 -46,77 -46,93 0,8 -13,41 -30,73 l -30,60 c 0,1 40,9 90,18 49,10 107,23 127,30 40,14 60,11 31,-5 z m 2279,-201 c -2,-13 -4,-5 -4,17 -1,22 1,32 4,23 2,-10 2,-28 0,-40 z M 7929,5922 c 24,-11 40,-30 57,-66 l 24,-51 -6,-439 c -6,-473 -5,-472 -60,-515 -43,-34 -97,-46 -143,-33 -55,17 -108,78 -116,136 -4,25 -5,231 -3,458 4,352 7,417 20,443 45,85 133,111 227,67 z m 267,-150 c -4,-3 -14,2 -24,12 -16,18 -16,18 6,6 13,-6 21,-14 18,-18 z m -646,-465 c 0,-131 0,-134 -24,-145 -13,-6 -54,-38 -90,-73 -221,-206 -215,-572 11,-780 143,-130 351,-179 547,-129 105,27 182,70 258,145 161,158 205,414 106,623 -33,70 -128,178 -182,207 l -36,20 v 128 c 0,71 3,127 8,125 245,-109 419,-309 468,-537 18,-88 18,-254 -2,-349 -51,-257 -268,-494 -528,-578 -67,-22 -106,-28 -221,-32 -122,-4 -152,-1 -228,18 -148,37 -262,98 -371,200 -243,226 -307,620 -149,921 74,143 185,250 338,325 50,24 91,44 93,44 1,0 2,-60 2,-133 z"/>
      <path fill="#D40000" d="m 10101,6709 c 295,-145 447,-290 559,-533 94,-203 126,-355 140,-651 10,-217 22,-279 71,-378 35,-69 127,-207 139,-207 4,0 8,44 9,98 3,167 35,359 94,562 25,85 37,114 48,111 8,-3 68,-4 134,-3 122,1 234,24 333,69 l 37,17 -105,7 c -133,8 -158,14 -248,55 -89,40 -175,124 -229,223 -110,202 -239,354 -404,476 -145,107 -396,192 -623,209 l -79,6 z"/>
      <path fill="#000000" d="m 3557,5733 c -4,-3 -7,-17 -7,-29 0,-13 -85,-452 -190,-977 -104,-524 -190,-955 -190,-958 0,-3 338,-5 750,-4 743,0 751,0 755,20 13,58 65,362 65,378 0,16 -29,17 -465,17 -455,0 -465,0 -465,20 0,21 71,385 210,1079 49,244 87,448 84,452 -6,10 -537,12 -547,2 z"/>
      <path fill="#000000" d="m 5220,5735 c 0,-3 -15,-83 -34,-178 -19,-94 -60,-305 -91,-467 -31,-162 -69,-362 -85,-445 -16,-82 -48,-249 -71,-370 -23,-121 -54,-283 -69,-360 -15,-77 -25,-143 -23,-147 2,-4 354,-7 783,-7 l 780,-1 5,23 c 14,63 65,352 65,368 0,18 -19,19 -500,19 -393,0 -500,3 -500,13 0,6 9,62 20,122 11,61 25,138 31,172 l 11,63 421,2 421,3 38,200 c 21,110 38,203 38,208 0,4 -189,7 -419,7 -394,0 -419,1 -415,18 2,9 15,82 29,162 14,80 28,153 31,163 5,16 37,17 478,17 h 473 l 32,181 c 17,99 34,193 38,210 l 6,29 h -747 c -410,0 -746,-2 -746,-5 z"/>
      <path fill="#000000" d="m 4049,3196 c -3,-3 -312,-6 -687,-6 -375,0 -683,-4 -686,-9 -11,-17 934,-21 4969,-21 4240,0 5045,4 5025,24 -12,12 -8609,24 -8621,12 z"/>
      <path fill="#000000" d="m 6437,2852 c -23,-25 -21,-30 8,-24 32,6 55,42 27,42 -10,0 -26,-8 -35,-18 z"/>
      <path fill="#000000" d="m 9927,2845 c -15,-21 -15,-25 -3,-25 8,0 28,11 43,25 l 28,24 h -25 c -15,0 -32,-9 -43,-24 z"/>
      <path fill="#000000" d="m 3693,2723 c -19,-43 -44,-99 -54,-125 l -19,-48 h 30 c 17,0 30,4 30,9 0,26 34,42 82,40 41,-2 52,-7 61,-26 7,-16 19,-23 40,-23 34,0 36,-10 -31,143 -44,99 -49,107 -75,107 -25,0 -32,-8 -64,-77 z m 97,-65 c 0,-5 -16,-8 -35,-8 -19,0 -35,2 -35,4 0,2 7,21 16,42 l 16,39 19,-35 c 10,-19 18,-38 19,-42 z"/>
      <path fill="#000000" d="m 4145,2788 c -27,-15 -35,-28 -35,-59 0,-39 20,-59 80,-78 57,-19 76,-44 40,-54 -19,-5 -51,1 -92,18 -11,4 -20,0 -27,-14 -10,-18 -7,-22 18,-36 17,-8 53,-15 81,-15 41,0 56,5 75,25 48,47 20,100 -67,125 -75,22 -72,45 5,45 66,0 93,21 54,42 -28,15 -106,16 -132,1 z"/>
      <path fill="#000000" d="m 4550,2675 v -125 h 100 c 91,0 100,2 100,19 0,22 -26,31 -92,31 -44,0 -48,2 -48,25 0,24 3,25 60,25 57,0 60,1 60,25 0,24 -3,25 -60,25 -57,0 -60,1 -60,25 0,24 2,25 70,25 68,0 70,1 70,25 v 25 h -100 -100 z"/>
      <path fill="#000000" d="m 5011,2782 c -29,-22 -31,-77 -5,-102 10,-10 41,-25 68,-33 56,-16 67,-30 36,-47 -17,-9 -31,-8 -65,3 -39,14 -45,14 -56,1 -22,-26 13,-48 84,-52 76,-5 110,16 110,66 0,43 -22,65 -88,86 -30,9 -55,21 -55,27 0,17 43,26 79,17 25,-7 36,-6 42,4 13,20 11,24 -16,36 -39,18 -109,15 -134,-6 z"/>
      <path fill="#000000" d="m 5478,2784 c -78,-42 -76,-178 2,-219 16,-8 50,-15 75,-15 25,0 59,7 75,15 80,41 79,172 0,219 -35,20 -116,20 -152,0 z m 140,-61 c 17,-23 15,-74 -4,-101 -35,-50 -144,-12 -144,50 0,30 26,67 53,77 28,10 78,-4 95,-26 z"/>
      <path fill="#000000" d="m 5937,2778 c -3,-13 -4,-41 -2,-63 2,-22 4,-68 4,-102 1,-60 2,-63 26,-63 22,0 25,4 25,34 0,28 4,34 26,39 21,4 30,-2 51,-34 21,-33 31,-39 59,-39 h 34 l -26,40 -26,39 21,27 c 12,15 21,41 21,58 -1,61 -42,86 -145,86 -57,0 -63,-2 -68,-22 z m 143,-43 c 20,-24 8,-49 -30,-57 -19,-4 -41,-5 -47,-3 -14,5 -18,57 -6,68 12,13 70,7 83,-8 z"/>
      <path fill="#000000" d="m 6407,2793 c -4,-3 -7,-60 -7,-125 v -118 h 30 30 v 125 c 0,124 0,125 -23,125 -13,0 -27,-3 -30,-7 z"/>
      <path fill="#000000" d="m 6791,2778 c -5,-13 -27,-66 -50,-118 -22,-52 -41,-98 -41,-102 0,-5 11,-8 25,-8 18,0 28,7 35,25 8,22 15,25 62,25 58,0 71,-6 81,-32 4,-12 17,-18 36,-18 h 30 l -33,78 c -77,177 -74,172 -107,172 -21,0 -32,-6 -38,-22 z m 57,-81 c 16,-46 16,-47 -18,-47 -16,0 -30,3 -30,7 0,14 24,73 30,73 3,0 11,-15 18,-33 z"/>
      <path fill="#000000" d="m 7520,2675 v -125 h 90 c 82,0 90,2 90,19 0,24 -19,31 -81,31 -46,0 -49,2 -49,25 0,24 3,25 61,25 57,0 60,1 57,23 -3,19 -10,22 -60,25 -54,3 -58,5 -58,27 0,24 3,25 65,25 63,0 65,1 65,25 0,25 -1,25 -90,25 h -90 z"/>
      <path fill="#000000" d="m 7950,2674 v -125 l 27,3 c 26,3 27,6 31,68 2,36 5,66 6,67 1,1 28,-29 59,-67 48,-59 62,-70 87,-70 h 31 l -3,123 -3,122 -27,3 -27,3 -3,-76 -3,-76 -63,76 c -47,55 -70,75 -88,75 h -24 z"/>
      <path fill="#000000" d="m 8447,2794 c -4,-4 -7,-61 -7,-126 v -118 h 100 100 v 25 c 0,24 -2,25 -70,25 -68,0 -70,1 -70,25 0,24 3,25 60,25 57,0 60,1 60,25 0,24 -3,25 -60,25 -57,0 -60,1 -60,25 0,24 2,25 71,25 67,0 70,1 67,23 -3,21 -8,22 -93,25 -50,1 -94,0 -98,-4 z"/>
      <path fill="#000000" d="m 8890,2675 v -125 h 25 c 22,0 25,4 25,34 0,28 4,34 25,38 20,4 29,-2 51,-33 22,-32 33,-39 61,-39 h 33 l -26,40 -26,39 21,27 c 12,15 21,41 21,58 -1,61 -42,86 -146,86 h -64 z m 138,66 c 8,-4 12,-19 10,-32 -3,-21 -9,-24 -49,-27 -45,-3 -47,-2 -47,25 0,15 2,31 5,36 6,10 65,9 81,-2 z"/>
      <path fill="#000000" d="m 9402,2783 c -82,-40 -83,-176 -2,-218 37,-19 113,-19 150,0 28,14 30,20 30,70 v 55 h -50 c -47,0 -50,-2 -50,-25 0,-20 5,-25 26,-25 19,0 25,-5 22,-17 -5,-28 -81,-30 -107,-4 -30,30 -29,94 1,115 25,18 85,21 108,6 10,-6 20,-4 32,7 17,16 17,17 -9,35 -35,22 -106,23 -151,1 z"/>
      <path fill="#000000" d="m 9830,2675 v -125 h 100 c 91,0 100,2 100,19 0,19 -39,31 -107,31 -28,0 -33,3 -33,25 0,24 3,25 61,25 57,0 60,1 57,23 -3,19 -10,22 -60,25 -54,3 -58,5 -58,27 0,24 3,25 65,25 63,0 65,1 65,25 0,25 0,25 -95,25 h -95 z"/>
      <path fill="#000000" d="m 10250,2775 c 0,-22 4,-25 40,-25 h 40 v -100 -100 h 30 30 v 100 100 h 40 c 36,0 40,3 40,25 v 25 h -110 -110 z"/>
      <path fill="#000000" d="m 10710,2675 v -125 h 30 30 v 125 125 h -30 -30 z"/>
      <path fill="#000000" d="m 11090,2793 c -87,-32 -100,-167 -21,-220 72,-49 227,-14 166,37 -12,10 -19,10 -27,2 -22,-22 -92,-14 -116,11 -29,31 -29,80 0,107 24,22 77,27 110,9 16,-9 24,-7 37,6 15,15 14,18 -8,36 -23,19 -103,26 -141,12 z"/>
      <path fill="#000000" d="m 11524,2684 c -27,-65 -50,-121 -52,-126 -2,-4 8,-8 22,-8 18,0 30,8 38,25 10,22 17,25 64,25 50,0 84,-16 84,-41 0,-5 14,-9 30,-9 17,0 30,3 30,8 -1,4 -25,59 -54,122 -49,106 -55,115 -83,118 -29,3 -31,1 -79,-114 z m 82,-34 c -17,-3 -32,-3 -34,1 -1,3 5,23 14,45 l 17,39 17,-40 17,-40 z"/>
    </g>
  </g>
</svg>