<?xml version="1.0" encoding="UTF-8" standalone="no"?>
<svg
   version="1.0"
   width="512"
   height="300"
   viewBox="0 0 384 224.99999"
   preserveAspectRatio="xMidYMid"
   id="svg25"
   sodipodi:docname="logoenergialeon - copia.svg"
   inkscape:version="1.4.2 (f4327f4, 2025-05-13)"
   xmlns:inkscape="http://www.inkscape.org/namespaces/inkscape"
   xmlns:sodipodi="http://sodipodi.sourceforge.net/DTD/sodipodi-0.dtd"
   xmlns="http://www.w3.org/2000/svg"
   xmlns:svg="http://www.w3.org/2000/svg">
  <defs
     id="defs25" />
  <sodipodi:namedview
     id="namedview25"
     pagecolor="#ffffff"
     bordercolor="#000000"
     borderopacity="0.25"
     inkscape:showpageshadow="2"
     inkscape:pageopacity="0.0"
     inkscape:pagecheckerboard="0"
     inkscape:deskcolor="#d1d1d1"
     inkscape:document-units="pt"
     inkscape:zoom="1.1938477"
     inkscape:cx="266.78445"
     inkscape:cy="250.03189"
     inkscape:window-width="1920"
     inkscape:window-height="1017"
     inkscape:window-x="-8"
     inkscape:window-y="-8"
     inkscape:window-maximized="1"
     inkscape:current-layer="svg25" />
  <g
     transform="matrix(0.1,0,0,-0.1,3.769325,976.25522)"
     fill="#000000"
     stroke="none"
     id="g25">
    <path
       d="m 2679.8439,9440.9842 c -75.8521,-5.3363 -171.9061,-30.4933 -237.8479,-61.7489 -62.5113,-29.731 -144.4621,-90.3365 -177.6236,-130.7402 -7.6234,-9.148 -14.4844,-16.3901 -15.2467,-15.6278 -3.0493,3.0493 19.4395,67.8476 33.1615,95.2916 8.0045,16.009 13.722,29.3499 12.5785,29.3499 -0.7623,0 -13.722,-6.0987 -28.2063,-13.3409 -49.5517,-25.157 -92.2423,-65.5606 -113.2065,-107.8701 -11.8162,-23.2512 -14.1032,-32.7803 -15.6278,-59.0808 -1.9059,-37.3544 -0.7624,-35.8297 -70.1347,-92.6235 -26.3005,-21.7265 -51.0763,-43.453 -54.1256,-48.027 -6.861,-9.5292 -8.3857,-37.3543 -1.9059,-37.3543 2.287,0 7.6234,1.9058 11.8162,4.1928 17.1525,9.148 1.9058,-4.574 -22.87,-20.583 -37.7355,-24.3946 -129.2155,-93.767 -152.4666,-115.4934 l -20.2019,-18.6772 17.1525,-24.0135 c 13.722,-19.4395 17.9149,-29.731 21.7265,-51.4575 5.3364,-32.018 15.2467,-53.7445 30.8745,-68.2288 l 11.0539,-10.2915 -8.0045,-15.2467 c -4.1929,-8.3856 -7.6234,-17.5336 -7.6234,-20.583 0,-3.0493 -7.2421,-7.2421 -16.009,-9.9103 -21.7265,-6.4798 -75.471,-31.2557 -75.471,-35.0673 0,-1.9059 -11.4349,-10.2915 -25.5381,-18.6772 -93.3858,-56.4126 -160.4711,-133.7894 -194.0138,-222.9824 -33.5427,-90.3365 -33.1615,-201.256 1.1435,-287.3996 41.166,-102.915 134.5518,-192.4891 244.7089,-234.7986 54.888,-20.583 89.193,-26.6817 158.5653,-26.6817 54.1257,0.3812 65.9419,1.5247 102.915,10.6727 122.7356,31.2556 231.3681,117.0181 285.8749,225.6506 27.0629,54.1256 36.9732,93.0046 38.879,156.6594 1.5247,33.5427 0.3812,64.036 -2.287,80.045 -14.1031,80.8073 -56.0315,159.3277 -117.7804,220.6955 -28.9687,28.5875 -89.9554,72.8028 -117.7805,84.619 l -14.4843,6.4798 17.1525,2.6681 c 9.5291,1.5247 31.2556,8.0045 48.4081,14.4844 17.1525,6.0986 39.6413,12.5785 49.9328,14.1031 16.7714,2.287 19.4395,1.5247 25.157,-6.4798 6.861,-9.9103 8.3857,-39.2601 2.287,-54.5068 -3.0493,-8.7668 -1.1435,-12.1973 18.6772,-33.1615 25.9193,-27.0628 26.6816,-27.0628 56.4126,5.7175 35.0674,38.1167 62.1302,85.7625 78.1392,135.6953 7.6233,24.7758 8.7668,36.592 8.7668,85.7625 0,56.4126 0,57.9373 -11.8162,81.5696 l -11.8161,23.6323 15.2466,-14.4843 c 28.9687,-27.0628 38.1167,-37.3543 49.1705,-54.5068 12.5785,-19.8207 25.157,-59.462 29.3499,-92.6235 l 3.0493,-23.6323 6.4798,14.4843 c 19.0584,42.6907 24.3947,118.1617 11.8162,168.4756 -10.6727,42.6907 -33.5427,84.2379 -60.9867,110.5384 -12.9596,12.5785 -29.731,26.3004 -37.3543,30.4933 -8.0045,4.1928 -14.1031,8.7668 -14.1031,10.2915 0,1.5246 7.6233,2.6681 17.1524,2.287 22.1077,-0.3812 50.6952,13.722 61.749,30.8745 11.8162,17.5336 16.3902,35.8296 16.3902,64.4171 v 23.6323 h -36.9732 c -60.9866,0 -127.3096,-9.5291 -141.4128,-20.2018 -2.6681,-1.9058 -5.7175,-2.6681 -6.861,-1.5246 -3.0493,2.6681 35.4485,27.4439 70.897,44.9776 45.74,23.2512 110.5383,32.7803 139.1258,20.9642 15.6279,-6.4799 22.87,-20.2019 26.3005,-48.027 3.0493,-25.157 -2.287,-56.0315 -13.722,-79.2827 -9.148,-17.5336 -32.7803,-44.5965 -48.027,-54.1256 -8.3856,-5.7175 -8.0045,-6.0987 20.9642,-22.87 17.1525,-9.9103 41.166,-28.5875 56.4126,-43.8342 47.2647,-46.8835 70.1347,-95.2916 73.184,-154.3724 l 1.5247,-32.3992 -10.6727,20.583 c -5.7175,11.435 -21.3453,32.018 -34.305,45.74 l -23.6323,25.157 -0.3812,-38.879 c 0,-21.3453 -1.9058,-48.027 -4.1928,-59.0808 -10.2915,-48.7893 -48.4081,-110.5383 -94.1481,-151.7043 -16.6305,-14.8326 -25.5382,-25.9193 -25.5382,-30.1122 0,-14.8655 -62.8925,-72.0405 -92.6235,-83.8566 -6.861,-3.0494 -11.8161,-6.4798 -11.435,-7.6233 8.7669,-19.0584 40.0225,-72.8029 42.3095,-72.8029 1.5247,0 2.6682,9.9104 2.6682,22.1077 v 21.7265 l 17.5337,9.5292 c 9.9103,4.9551 26.3004,16.7713 37.3543,26.3004 12.9596,11.8162 17.1525,14.4844 13.3408,8.0045 -10.6727,-16.3901 -25.157,-61.3678 -32.018,-99.1033 -4.9552,-27.444 -6.861,-59.8431 -7.6233,-131.5024 -0.7624,-89.193 -1.5247,-97.5787 -10.6727,-132.2648 -5.3363,-20.2019 -16.7713,-51.8387 -25.157,-70.1347 -8.7668,-18.296 -15.2466,-33.9238 -14.4843,-34.6861 3.0493,-3.0494 64.036,75.0898 87.2871,112.4441 48.7894,77.3768 96.4352,179.9106 124.6415,268.3413 14.4843,46.1211 30.4933,129.9778 33.5427,178.3859 1.9058,27.8252 4.1928,38.4978 10.2915,46.8835 4.1928,5.7175 8.7668,10.2915 10.6726,10.2915 5.3364,0 3.4305,-137.6011 -2.6681,-172.6684 -12.5785,-71.6594 -40.4037,-165.0452 -69.7535,-233.274 -54.5068,-126.5473 -150.5608,-252.3323 -247.7583,-325.1351 -17.5337,-12.9596 -30.8745,-23.6323 -29.731,-23.6323 6.0987,0 65.5607,25.5382 89.9553,38.879 82.332,44.9776 178.0048,137.22 221.0766,213.8344 6.861,12.1974 12.5785,21.7265 13.3409,20.9642 0.3811,-0.7623 -3.4305,-25.9193 -8.0045,-56.4127 -24.3947,-148.6549 -35.0674,-222.9824 -33.5427,-225.6506 1.5247,-2.287 55.2692,-2.287 181.0541,0.3812 l 17.9149,0.3812 6.4798,43.0718 c 3.4305,23.2512 12.9597,83.0943 20.9642,132.2648 8.0045,49.1705 20.2018,130.359 27.0628,180.2918 6.861,49.5516 13.3408,90.3365 14.4843,90.3365 1.1435,-0.3812 13.722,-16.7714 27.8252,-37.3544 127.3096,-183.3411 271.3906,-389.5522 278.2516,-397.5567 8.7668,-9.9103 9.5291,-9.9103 81.9508,-12.5785 64.7983,-2.6682 107.8701,-0.7623 107.8701,4.1928 0,2.6682 71.6593,447.1084 91.8612,569.4629 10.6726,66.323 18.6771,123.1168 17.5336,126.5473 -1.5246,4.574 -19.0583,6.0987 -101.0091,8.3857 -54.5068,1.5246 -101.0092,1.9058 -102.915,0.3811 -1.9058,-1.1435 -4.574,-13.722 -6.0987,-27.8251 -1.5246,-13.722 -9.5291,-68.2289 -17.5336,-120.8298 -8.3857,-52.601 -19.0583,-120.0675 -23.6323,-149.7985 -4.9552,-30.1122 -9.5292,-54.5068 -10.6727,-54.5068 -2.287,0.3811 -28.9687,36.592 -120.4486,163.9016 -97.5787,136.0765 -131.1213,186.3905 -128.4532,192.8703 1.9059,5.7175 -30.8745,57.175 -58.3185,91.0988 -20.583,25.157 -60.6055,93.3858 -71.6593,121.9733 -20.583,52.2198 -33.9238,80.045 -43.0718,92.6235 -5.3363,6.861 -8.7668,13.3408 -8.0045,14.4843 1.1435,0.7623 13.722,-6.861 28.2063,-17.1525 32.3992,-22.4888 65.1795,-57.5561 83.8567,-89.193 14.4843,-24.3946 39.6413,-83.4754 39.6413,-92.6234 0,-3.0494 1.5247,-5.3364 3.4305,-5.3364 4.1928,0 6.4798,9.9104 11.435,46.8835 10.6727,75.8522 -32.018,169.6191 -100.2468,221.4578 -42.6907,32.018 -110.9195,59.8431 -162.7581,65.5606 -12.5785,1.5247 -21.7265,3.4305 -20.9642,4.574 3.8117,3.4305 83.8566,15.2467 122.3545,17.9149 93.7669,6.4798 223.7447,-21.3454 312.9377,-66.7042 72.8028,-37.3543 109.0137,-64.036 190.2021,-139.1258 72.4217,-67.4665 103.6773,-86.5248 164.664,-101.7715 38.879,-9.9103 109.0136,-10.6726 147.8926,-1.9058 l 22.87,4.9552 -25.5381,6.4798 c -72.4217,18.296 -120.4487,52.9822 -198.5878,143.6998 -93.0047,108.2513 -155.1348,160.4711 -237.0856,200.1125 -76.6145,37.3543 -131.8837,50.6951 -221.0766,54.1256 -63.6549,2.287 -131.8837,-4.574 -173.812,-17.9148 -13.3408,-3.8117 -24.7758,-6.861 -25.5382,-6.0987 -0.3811,0.7623 10.2915,7.6233 24.0135,15.2467 68.9912,37.7355 105.9643,46.1211 209.6416,45.74 64.036,0 82.7132,-1.5247 116.2559,-8.7669 47.2646,-9.9103 126.9284,-36.2108 169.2379,-55.6503 16.3902,-7.2421 30.8745,-12.5785 32.018,-11.435 1.1435,1.1435 -14.8655,18.6772 -35.8297,39.2602 -78.5203,76.9956 -180.2917,130.3589 -293.4982,153.9913 -54.1257,11.0538 -166.5698,12.1973 -221.4578,1.9058 -75.8521,-14.4843 -157.803,-42.3095 -227.1753,-77.3768 -22.87,-11.8162 -42.3095,-20.583 -43.0718,-19.8207 -1.5247,1.9059 68.2288,59.462 89.9553,74.3275 29.731,19.8207 96.054,53.3633 133.4083,67.0853 69.7535,25.9194 142.1751,41.5472 236.3233,51.4575 l 28.5875,3.0493 -20.9642,4.574 c -40.0225,9.148 -86.1436,16.009 -134.9329,19.8207 -54.1257,4.1928 -71.6594,4.1928 -134.1707,-0.3812 z m -447.4895,-410.5164 c -14.1032,-9.5291 -27.8252,-24.3946 -34.6862,-37.3543 -7.6233,-14.1031 -26.6816,-23.6323 -57.9373,-28.5875 -12.9597,-1.9058 -28.9687,-4.1928 -35.8297,-5.3363 l -11.8161,-2.287 8.3856,18.296 c 4.9552,9.9103 9.9104,22.1077 11.435,26.6817 1.5247,4.5739 8.7669,12.1973 16.3902,16.7713 12.9597,8.0045 25.9193,10.2915 109.776,17.9148 2.287,0.3812 -0.3812,-2.6682 -5.7175,-6.0987 z m -271.3906,-203.1617 c -3.4305,-1.9059 -15.6279,-11.0539 -27.444,-20.583 -24.0135,-19.8207 -31.2557,-37.3544 -27.0628,-65.5607 1.1435,-9.148 1.5246,-16.3901 0.3811,-16.3901 -3.0493,0 -17.5336,29.3498 -17.5336,35.4484 0,3.0494 -4.9552,15.6279 -11.435,27.8252 l -11.435,22.87 c 0,0.3812 15.2466,3.4305 34.305,6.861 18.6771,3.8117 40.7848,8.7668 48.4081,11.435 15.2467,5.3363 22.87,4.1928 11.8162,-1.9058 z m 868.6786,-76.6145 c -0.7623,-4.9552 -1.5247,-1.9059 -1.5247,6.4798 -0.3811,8.3857 0.3812,12.1973 1.5247,8.7668 0.7623,-3.8116 0.7623,-10.6726 0,-15.2466 z m -799.6875,-51.8387 c 9.148,-4.1928 15.2467,-11.435 21.7265,-25.157 l 9.148,-19.4395 -2.287,-167.3321 c -2.287,-180.2918 -1.9058,-179.9106 -22.87,-196.3008 -16.3901,-12.9596 -36.9731,-17.5336 -54.5068,-12.5785 -20.9642,6.4799 -41.166,29.731 -44.2153,51.8387 -1.5247,9.5292 -1.9059,88.0495 -1.1435,174.5743 1.5246,134.1706 2.6681,158.9464 7.6233,168.8568 17.1525,32.3991 50.6952,42.3095 86.5248,25.5381 z m 101.7715,-57.175 c -1.5247,-1.1435 -5.3363,0.7624 -9.148,4.574 -6.0987,6.861 -6.0987,6.861 2.287,2.287 4.9552,-2.287 8.0045,-5.3363 6.861,-6.861 z m -246.2336,-177.2424 c 0,-49.9328 0,-51.0763 -9.148,-55.2692 -4.9552,-2.287 -20.583,-14.4843 -34.305,-27.8251 -84.2378,-78.5203 -81.9508,-218.0273 4.1928,-297.3099 54.5069,-49.5517 133.7895,-68.2289 208.4982,-49.1705 40.0224,10.2915 69.3723,26.6816 98.3409,55.2691 61.3678,60.2243 78.1392,157.803 40.4037,237.4668 -12.5785,26.6816 -48.7893,67.8476 -69.3723,78.9015 l -13.722,7.6233 v 48.7893 c 0,27.0628 1.1435,48.4082 3.0493,47.6458 93.3858,-41.5471 159.7088,-117.7804 178.386,-204.6864 6.861,-33.5427 6.861,-96.8163 -0.7624,-133.0271 -19.4395,-97.9598 -102.1526,-188.2963 -201.2559,-220.3143 -25.5382,-8.3857 -40.4037,-10.6727 -84.2378,-12.1973 -46.5024,-1.5247 -57.9374,-0.3812 -86.906,6.861 -56.4127,14.1031 -99.8657,37.3543 -141.4128,76.2333 -92.6235,86.1436 -117.0181,236.3232 -56.7938,351.0544 28.2063,54.5068 70.5158,95.2916 128.8343,123.8791 19.0583,9.148 34.6861,16.7713 35.4485,16.7713 0.3811,0 0.7623,-22.87 0.7623,-50.6951 z"
       id="path1"
       sodipodi:nodetypes="cccssscccccscccccccccscsccccccccccccccccccccssccccccsccsccscscccccccccccccccccsccssccccccccsccccscccsccccccccscccccscsccccccccccccccssccccccccccccccccccccsccccccccccccccccccsccccccsscccscccccccccccccccccccsccccccccscccccscccss"
       style="fill:#d40000;stroke-width:0.381167" />
    <path
       d="m 2857.8487,8998.831 c 112.4442,-55.2691 170.3815,-110.5383 213.0721,-203.1618 35.8297,-77.3768 48.027,-135.3141 53.3633,-248.1394 3.8117,-82.7131 8.3857,-106.3455 27.0629,-144.081 13.3408,-26.3005 48.4081,-78.9014 52.9821,-78.9014 1.5247,0 3.0494,16.7713 3.4305,37.3543 1.1435,63.6548 13.3409,136.8388 35.8297,214.2156 9.5291,32.3992 14.1031,43.453 18.296,42.3095 3.0493,-1.1435 25.9193,-1.5247 51.0763,-1.1435 46.5023,0.3811 89.193,9.148 126.9285,26.3005 l 14.1031,6.4798 -40.0225,2.6682 c -50.6951,3.0493 -60.2243,5.3363 -94.5293,20.9641 -33.9238,15.2467 -66.7041,47.2647 -87.2871,85.0002 -41.9283,76.9956 -91.0988,134.9329 -153.9913,181.4353 -55.2692,40.7848 -150.942,73.1839 -237.4668,79.6638 l -30.1121,2.287 z"
       id="path2"
       style="fill:#d40000;stroke-width:0.381167" />
    <path
       d="m 363.49468,8626.8124 c -1.52467,-1.1435 -2.66817,-6.4798 -2.66817,-11.0538 0,-4.9552 -32.39915,-172.2873 -72.42164,-372.3997 -39.64133,-199.7313 -72.42165,-364.0141 -72.42165,-365.1576 0,-1.1435 128.8343,-1.9058 285.87492,-1.5247 283.20677,0 286.2561,0 287.78076,7.6234 4.95517,22.1076 24.77583,137.9823 24.77583,144.0809 0,6.0987 -11.05383,6.4799 -177.24245,6.4799 -173.43079,0 -177.24246,0 -177.24246,7.6233 0,8.0045 27.06283,146.7491 80.04498,411.2787 18.67716,93.0047 33.16149,170.7626 32.01799,172.2873 -2.287,3.8117 -204.68644,4.574 -208.49811,0.7623 z"
       id="path3"
       style="stroke-width:0.381167" />
    <path
       d="m 997.37469,8627.5748 c 0,-1.1435 -5.7175,-31.6368 -12.95967,-67.8477 -7.24216,-35.8296 -22.86999,-116.2558 -34.68616,-178.0048 -11.81616,-61.7489 -26.30049,-137.9823 -32.39915,-169.6191 -6.09867,-31.2556 -18.296,-94.9105 -27.06283,-141.0316 -8.76683,-46.1212 -20.583,-107.8702 -26.30049,-137.22 -5.7175,-29.3498 -9.52917,-54.5068 -8.76684,-56.0315 0.76234,-1.5246 134.93297,-2.6681 298.45345,-2.6681 l 297.3099,-0.3812 1.9058,8.7668 c 5.3364,24.0135 24.7759,134.1707 24.7759,140.2693 0,6.861 -7.2422,7.2422 -190.5833,7.2422 -149.7985,0 -190.5833,1.1435 -190.5833,4.9552 0,2.287 3.4305,23.6323 7.6233,46.5023 4.1929,23.2511 9.5292,52.601 11.8162,65.5606 l 4.1928,24.0135 160.4711,0.7624 160.4712,1.1435 14.4843,76.2333 c 8.0045,41.9283 14.4843,77.3768 14.4843,79.2826 0,1.5247 -72.0404,2.6682 -159.7088,2.6682 -150.1796,0 -159.7088,0.3812 -158.1841,6.861 0.7623,3.4305 5.7175,31.2556 11.0538,61.749 5.3364,30.4933 10.6727,58.3185 11.8162,62.1301 1.9058,6.0987 14.1032,6.4799 182.1976,6.4799 h 180.2918 l 12.1973,68.9911 c 6.4799,37.7355 12.9597,73.5651 14.4844,80.045 l 2.287,11.0538 h -284.7315 c -156.2782,0 -284.35021,-0.7623 -284.35021,-1.9058 z"
       id="path4"
       style="stroke-width:0.381167" />
  </g>
</svg>
